<?xml version="1.0" encoding="UTF-8"?><svg id="Layer_1" xmlns="http://www.w3.org/2000/svg" viewBox="0 0 106.73 86.51"><defs><style>.cls-1{fill:#ed1c24;fill-rule:evenodd;}</style></defs><path class="cls-1" d="M2.38,68.05c.63.05,34.04.1,34.75.13,6.13.25,14.62.27,25.46.06,8.01-.13,13.11-.75,15.32-1.87,2.08-1.08,3.12-3.02,3.11-5.81-.01-3.76-1.48-6.12-4.41-7.08-1.76-.58-4.66-.9-8.71-.94-.79,0-3.3-.02-7.52-.06h-23.5c-6.38,0-11.9-.21-16.58-.62-7.55-.62-12.92-3.02-16.1-7.18C1.43,40.95.03,35.13,0,27.17c-.03-7.87,1.26-13.66,3.87-17.37,1.86-2.62,4.5-4.62,7.91-6C16.78,1.85,24.44.67,34.77.25c4.04-.17,9.83-.25,17.37-.25,4.06,0,46.69.02,50.02.05l.07,18.31c-1.53-.04-42.12-.06-43.91-.06-10.25,0-18.1.19-23.55.56-4.04.29-6.62,1.12-7.74,2.48-.95,1.2-1.43,2.71-1.42,4.54.01,3.56,1.87,5.82,5.59,6.77,1.04.29,4.52.5,10.43.62h24.19c4.25,0,10.3.21,18.17.62,9.08.46,15.25,3.02,18.51,7.68,2.8,4,4.22,9.83,4.25,17.5.04,9.58-2.06,16.39-6.3,20.43-3.2,3.04-8.6,4.96-16.23,5.75-8.16.83-18.91,1.25-32.24,1.25-6.35,0-44.69-.05-49.52-.16l-.07-18.31Z"/></svg>