<?xml version="1.0" encoding="UTF-8"?><svg id="Layer_1" xmlns="http://www.w3.org/2000/svg" viewBox="0 0 563.12 187.32"><defs><style>.cls-1,.cls-2{fill:#ed1c24;}.cls-2,.cls-3{fill-rule:evenodd;}.cls-3,.cls-4{fill:#58595b;}</style></defs><path class="cls-2" d="M6.54,68.05c.63.05,34.04.1,34.75.13,6.13.25,14.62.27,25.46.06,8.01-.13,13.11-.75,15.32-1.87,2.08-1.08,3.12-3.02,3.11-5.81-.01-3.76-1.48-6.12-4.41-7.08-1.76-.58-4.66-.9-8.71-.94-.79,0-3.3-.02-7.52-.06h-23.5c-6.38,0-11.9-.21-16.58-.62-7.55-.62-12.92-3.02-16.1-7.18-2.77-3.71-4.16-9.53-4.19-17.49-.03-7.87,1.26-13.66,3.87-17.37,1.86-2.62,4.5-4.62,7.91-6C20.94,1.85,28.6.67,38.93.25c4.04-.17,9.83-.25,17.37-.25,4.06,0,46.69.02,50.02.05l.07,18.31c-1.53-.04-42.12-.06-43.91-.06-10.25,0-18.1.19-23.55.56-4.04.29-6.62,1.12-7.74,2.48-.95,1.2-1.43,2.71-1.42,4.54.01,3.56,1.87,5.82,5.59,6.77,1.04.29,4.52.5,10.43.62h24.19c4.25,0,10.3.21,18.17.62,9.08.46,15.25,3.02,18.51,7.68,2.8,4,4.22,9.83,4.25,17.5.04,9.58-2.06,16.39-6.3,20.43-3.2,3.04-8.6,4.96-16.23,5.75-8.16.83-18.91,1.25-32.24,1.25-6.35,0-44.69-.05-49.52-.16l-.07-18.31Z"/><polygon class="cls-1" points="132.49 85.93 132.18 .58 158.28 .58 158.41 34.99 222.86 34.99 222.74 .58 248.85 .58 249.16 85.93 223.05 85.93 222.93 51.89 158.47 51.89 158.6 85.93 132.49 85.93"/><path class="cls-1" d="M318.23,21.21l-.08-20.63h103.58l.08,20.63h-103.58ZM344.57,85.93h-26.11l-.12-34.04-.06-16.9h103.52v16.9h-77.35l.12,34.04Z"/><polygon class="cls-2" points="270.76 85.93 270.44 .58 296.55 .58 296.87 85.93 270.76 85.93"/><polygon class="cls-1" points="483.35 85.93 483.12 21.69 481 21.69 433.27 21.69 433.19 .58 558.87 .58 558.95 21.69 513.62 21.69 509.1 21.69 509.33 85.93 483.35 85.93"/><polygon class="cls-4" points="391.93 101.39 437.74 186.75 409.12 186.75 375.2 122.27 352.2 165.63 341 186.75 324.23 186.75 312.07 186.75 359 101.39 391.93 101.39"/><polygon class="cls-4" points="207.51 101.39 208.94 101.39 237.33 101.39 237.87 101.39 237.59 101.91 269.38 165.86 303.58 101.39 332.51 101.39 285.58 186.75 252.65 186.75 234.66 150.45 222.74 128.91 190.94 186.75 158.01 186.75 140.02 150.45 112.87 101.39 142.69 101.39 174.74 165.86 208.24 102.71 207.51 101.39"/><path class="cls-3" d="M2.38,168.86c.63.05,34.04.1,34.75.13,6.13.25,14.62.27,25.46.06,8.01-.13,13.11-.75,15.32-1.87,2.08-1.08,3.12-3.02,3.11-5.81-.01-3.76-1.48-6.12-4.41-7.08-1.76-.58-4.66-.9-8.71-.94-.79,0-3.3-.02-7.52-.06h-23.5c-6.38,0-11.9-.21-16.58-.62-7.55-.62-12.92-3.02-16.1-7.18C1.43,141.77.03,135.94,0,127.99c-.03-7.87,1.26-13.66,3.87-17.37,1.86-2.62,4.5-4.62,7.91-6,4.99-1.96,12.65-3.14,22.98-3.56,4.04-.17,9.83-.25,17.37-.25,4.06,0,46.69.02,50.02.05l.07,18.31c-1.53-.04-42.12-.06-43.91-.06-10.25,0-18.1.19-23.55.56-4.04.29-6.62,1.12-7.74,2.48-.95,1.2-1.43,2.71-1.42,4.54.01,3.56,1.87,5.82,5.59,6.77,1.04.29,4.52.5,10.43.62h24.19c4.25,0,10.3.21,18.17.62,9.08.46,15.25,3.02,18.51,7.68,2.8,4,4.22,9.83,4.25,17.5.04,9.58-2.06,16.39-6.3,20.43-3.2,3.04-8.6,4.96-16.23,5.75-8.16.83-18.91,1.25-32.24,1.25-6.35,0-44.69-.05-49.52-.16l-.07-18.31Z"/><path class="cls-4" d="M450.74,186.75l-.15-41.72h73.02c4.12,0,7.08-.33,8.87-1,1.87-.71,3.24-2.15,4.11-4.32.46-1.17.68-3.19.67-6.07-.02-4.88-1.24-8.12-3.66-9.7-1.34-.83-2.98-1.36-4.94-1.56-.79-.08-2.5-.13-5.12-.13h-73.02l-.08-20.86h74.77c6.71,0,11.31.1,13.81.31,6.29.54,11.11,1.92,14.45,4.13,4.76,3.25,7.67,8.07,8.74,14.45.6,3.59.9,7.74.92,12.45.03,9.26-.9,16.08-2.8,20.46-2.44,5.55-6.36,9.13-11.77,10.76-4,1.21-10.95,1.81-20.86,1.81h-51.04l.08,20.99h-25.98Z"/></svg>