<svg xmlns="http://www.w3.org/2000/svg" id="Layer_1" viewBox="0 0 563.12 187.32"><defs><style>.cls-1{fill:#fff}.cls-3,.cls-4{fill:#ed1c24}.cls-4{fill-rule:evenodd}</style></defs><path d="M6.54 68.05c.63.05 34.04.1 34.75.13 6.13.25 14.62.27 25.46.06 8.01-.13 13.11-.75 15.32-1.87 2.08-1.08 3.12-3.02 3.11-5.81q-.015-5.64-4.41-7.08c-1.76-.58-4.66-.9-8.71-.94-.79 0-3.3-.02-7.52-.06h-23.5c-6.38 0-11.9-.21-16.58-.62-7.55-.62-12.92-3.02-16.1-7.18-2.77-3.71-4.16-9.53-4.19-17.49Q4.125 15.385 8.04 9.82c1.86-2.62 4.5-4.62 7.91-6C20.94 1.85 28.6.67 38.93.25 42.97.08 48.76 0 56.3 0c4.06 0 46.69.02 50.02.05l.07 18.31c-1.53-.04-42.12-.06-43.91-.06-10.25 0-18.1.19-23.55.56-4.04.29-6.62 1.12-7.74 2.48-.95 1.2-1.43 2.71-1.42 4.54.01 3.56 1.87 5.82 5.59 6.77 1.04.29 4.52.5 10.43.62h24.19c4.25 0 10.3.21 18.17.62q13.62.69 18.51 7.68c2.8 4 4.22 9.83 4.25 17.5q.06 14.37-6.3 20.43c-3.2 3.04-8.6 4.96-16.23 5.75-8.16.83-18.91 1.25-32.24 1.25-6.35 0-44.69-.05-49.52-.16l-.07-18.31Z" class="cls-4"/><path d="M132.49 85.93 132.18.58h26.1l.13 34.41h64.45L222.74.58h26.11l.31 85.35h-26.11l-.12-34.04h-64.46l.13 34.04zM318.23 21.21 318.15.58h103.58l.08 20.63zm26.34 64.72h-26.11l-.12-34.04-.06-16.9H421.8v16.9h-77.35z" class="cls-3"/><path d="M270.76 85.93 270.44.58h26.11l.32 85.35z" class="cls-4"/><path d="m483.35 85.93-.23-64.24h-49.85L433.19.58h125.68l.08 21.11H509.1l.23 64.24z" class="cls-3"/><path d="m391.93 101.39 45.81 85.36h-28.62l-33.92-64.48-23 43.36-11.2 21.12h-28.93L359 101.39zM207.51 101.39h30.36l-.28.52 31.79 63.95 34.2-64.47h28.93l-46.93 85.36h-32.93l-17.99-36.3-11.92-21.54-31.8 57.84h-32.93l-17.99-36.3-27.15-49.06h29.82l32.05 64.47 33.5-63.15z" class="cls-1"/><path d="M2.38 168.86c.63.05 34.04.1 34.75.13 6.13.25 14.62.27 25.46.06 8.01-.13 13.11-.75 15.32-1.87 2.08-1.08 3.12-3.02 3.11-5.81q-.015-5.64-4.41-7.08c-1.76-.58-4.66-.9-8.71-.94-.79 0-3.3-.02-7.52-.06h-23.5c-6.38 0-11.9-.21-16.58-.62-7.55-.62-12.92-3.02-16.1-7.18-2.77-3.72-4.17-9.55-4.2-17.5q-.045-11.805 3.87-17.37c1.86-2.62 4.5-4.62 7.91-6 4.99-1.96 12.65-3.14 22.98-3.56 4.04-.17 9.83-.25 17.37-.25 4.06 0 46.69.02 50.02.05l.07 18.31c-1.53-.04-42.12-.06-43.91-.06-10.25 0-18.1.19-23.55.56-4.04.29-6.62 1.12-7.74 2.48-.95 1.2-1.43 2.71-1.42 4.54.01 3.56 1.87 5.82 5.59 6.77 1.04.29 4.52.5 10.43.62h24.19c4.25 0 10.3.21 18.17.62q13.62.69 18.51 7.68c2.8 4 4.22 9.83 4.25 17.5q.06 14.37-6.3 20.43c-3.2 3.04-8.6 4.96-16.23 5.75-8.16.83-18.91 1.25-32.24 1.25-6.35 0-44.69-.05-49.52-.16l-.07-18.31Z" style="fill:#fff;fill-rule:evenodd"/><path d="m450.74 186.75-.15-41.72h73.02c4.12 0 7.08-.33 8.87-1q2.805-1.065 4.11-4.32c.46-1.17.68-3.19.67-6.07-.02-4.88-1.24-8.12-3.66-9.7-1.34-.83-2.98-1.36-4.94-1.56-.79-.08-2.5-.13-5.12-.13h-73.02l-.08-20.86h74.77c6.71 0 11.31.1 13.81.31 6.29.54 11.11 1.92 14.45 4.13 4.76 3.25 7.67 8.07 8.74 14.45.6 3.59.9 7.74.92 12.45.03 9.26-.9 16.08-2.8 20.46-2.44 5.55-6.36 9.13-11.77 10.76-4 1.21-10.95 1.81-20.86 1.81h-51.04l.08 20.99h-25.98Z" class="cls-1"/></svg>